<svg preserveAspectRatio="xMidYMid meet" width="100%" height="100%" overflow="visible" style="display: block;" viewBox="0 0 74.7977 105.437" fill="none" xmlns="http://www.w3.org/2000/svg">
<g id="Group 515525">
<g id="image 2 (Traced)" filter="url(#filter0_d_0_4)">
<mask id="path-1-outside-1_0_4" maskUnits="userSpaceOnUse" x="3.34485" y="-0.655151" width="68" height="99" fill="black">
<rect fill="white" x="3.34485" y="-0.655151" width="68" height="99"/>
<path d="M31.0189 7.40876C30.2838 2.94007 30.2903 3.62222 30.0605 5.49821C29.7477 8.05195 29.0106 13.8748 29.2235 16.4314C31.4637 15.135 31.3991 9.71962 31.0189 7.40876Z"/>
<path d="M56.4593 17.1798C54.5569 15.5967 53.1605 14.6607 53.2828 15.0506C53.4645 15.6304 54.0221 19.1782 54.1405 20.5091L54.2588 21.8382C59.491 27.3058 62.5505 34.4456 63.3801 41.977C63.4931 43.0021 63.607 43.8193 63.6333 43.793C64.9785 42.4478 64.6396 37.097 64.3016 35.5028C64.2086 35.0642 64.2267 34.8798 64.3628 34.8798C64.6992 34.8798 67.7222 38.069 68.5743 39.3229C69.024 39.9847 69.4154 40.5031 69.444 40.4745C69.5216 40.3968 69.0705 37.932 68.7579 36.7253C67.8938 33.3905 65.1649 28.248 62.9611 25.801C62.5375 25.3307 62.1909 24.8996 62.1909 24.8429C62.1909 24.7863 62.5461 24.9197 62.98 25.1391C63.7256 25.5164 65.8522 26.2408 66.2138 26.2408C66.3057 26.2408 65.9053 25.8944 65.3242 25.4711C62.0668 23.0983 59.5549 19.7555 56.4593 17.1798Z"/>
<path d="M59.8152 45.8126C59.4522 45.0908 59.0938 44.4621 59.0185 44.4158C58.9435 44.3693 58.7438 44.8683 58.575 45.5246C55.2773 58.3447 43.2056 68.5624 30.9035 72.245C30.2087 72.453 30.4132 72.4746 33.7922 72.5518L37.4284 72.6349L36.0571 73.1951C27.4106 76.7271 22.8789 87.1358 21.527 95.7276C21.4326 96.3271 21.4973 96.2544 22.1874 94.983C30.3661 79.9165 50.6627 77.1066 58.1673 61.6246C58.5336 60.8687 58.9039 60.2937 58.9898 60.3469C59.0759 60.4001 59.1528 61.5045 59.1606 62.8012L59.1749 65.1588L59.7331 63.9959C62.424 58.3896 62.6249 51.401 59.8152 45.8126Z"/>
<path fill-rule="evenodd" clip-rule="evenodd" d="M44.9046 3.1308C44.208 2.14944 43.5652 1.34585 43.476 1.34485C43.2188 1.34203 39.8686 4.85444 37.6146 7.49C34.5875 11.0293 31.9084 14.6398 27.7321 20.8072C25.5003 24.1031 25.3132 24.3578 25.2042 24.2488C24.1589 23.2059 29.329 18.5076 28.6162 17.6144C28.5162 17.4891 27.8165 17.8425 25.8419 18.7953C18.7386 22.2226 11.8312 28.5527 11.3406 36.8612C11.1554 39.9977 11.0487 40.2128 7.72556 44.1592C6.12702 46.0576 5.34635 47.1164 5.34485 47.3882C5.34419 47.5074 8.52162 48.3591 8.77104 48.3591C9.12591 48.3591 9.04333 48.5868 8.49974 49.1077C7.9417 49.6423 7.6724 50.4148 7.67107 51.4851C7.67007 52.2534 7.75098 52.454 8.60541 53.798C9.11112 54.5934 9.19153 54.6531 9.54307 54.4929C9.84543 54.3552 10.3696 54.4338 11.9969 54.8612C13.844 55.3464 14.3101 55.405 16.3375 55.4077C17.5868 55.4093 18.5741 55.467 18.5316 55.5356C18.3434 55.8401 16.6385 56.1674 15.2405 56.1674C14.1573 56.1674 13.2332 56.0418 11.952 55.7203C10.972 55.4744 10.1307 55.3126 10.0827 55.3608C9.92402 55.5193 10.6587 57.3988 11.1772 58.1612C11.7847 59.0545 12.6056 59.673 13.734 60.0875C14.8752 60.5068 18.3175 60.5083 20.2963 60.0902C22.8956 59.5409 28.1569 57.641 27.6062 57.4505C26.0788 56.9216 16.8254 54.0219 14.98 53.494C13.6551 53.1148 12.5337 52.7696 12.488 52.7267C12.317 52.5666 13.8333 52.9178 17.0567 53.7849C25.1598 55.9646 33.343 58.8087 41.7928 57.0471C41.8717 57.0306 41.9472 57.0152 42.0188 57.0006C42.4749 56.9074 42.7735 56.8464 42.7809 56.7603C42.7949 56.5972 41.7625 56.344 38.7727 55.6109C38.5253 55.5502 38.2644 55.4863 37.9896 55.4188C30.1019 53.4822 23.4396 52.3541 16.3973 51.763C14.6642 51.6175 13.2063 51.4561 13.1577 51.4045C13.0322 51.2711 17.5554 51.4887 20.7947 51.7718C28.2881 52.4268 35.9711 54.4361 43.4893 53.2556C45.8303 52.8881 45.9599 52.7806 44.3447 52.547C40.1914 51.9468 36.2115 50.3996 32.0584 49.7823C26.0223 48.8861 20.1084 49.0532 14.2751 50.2849C13.1812 50.5158 12.2537 50.6723 12.214 50.6325C12.0992 50.5177 15.5448 49.7142 17.6381 49.3675C22.4195 48.5759 29.4312 48.479 33.0886 49.1542C34.0481 49.3313 34.8493 49.464 34.8691 49.4492C34.889 49.4343 33.5433 48.9126 31.8787 48.2898C28.0214 46.8466 25.3087 45.715 25.1707 45.4918C24.9623 45.1548 30.7697 45.4893 34.4177 46.0246C40.9237 46.979 47.4522 47.516 53.2828 43.793C54.304 43.141 56.8459 40.7867 56.8459 40.4929C56.8459 40.4016 56.6776 40.4825 56.4721 40.6729C54.3027 42.6816 50.3638 43.2982 47.5423 43.0501L46.4625 42.9549L47.1466 42.5914C48.1966 42.0333 49.5811 40.6778 50.1068 39.6933L50.5804 38.8063L50.0166 39.3283C49.2912 40.0002 48.3037 40.4901 47.0022 40.8242C37.0325 43.3835 28.2654 36.6867 18.2611 44.1193C17.4617 44.7134 16.8075 45.1525 16.8075 45.095C19.4597 40.8242 25.1614 36.7273 28.5199 36.7328C27.7469 37.1142 24.3355 39.119 25.8618 38.4021C31.2128 35.8897 37.0626 35.784 43.023 38.0921C46.3459 39.3788 50.2431 37.5725 52.5094 34.9557C60.6323 25.574 50.3558 10.8101 44.9046 3.1308ZM42.452 5.55437C39.9575 7.40594 37.1154 11.2441 34.7601 15.9426C34.2049 17.0502 33.8215 17.9565 33.9082 17.9565C35.4358 17.9565 36.9708 15.5936 38.9623 15.6437L39.4848 15.6568L38.9864 15.8336C37.2029 16.4662 34.4815 20.7305 35.1238 20.1878C36.5868 18.9516 38.9894 18.4871 41.0236 19.0471C42.0528 19.3306 42.1028 19.3643 41.6446 19.467C40.7369 19.6699 33.9406 23.2627 36.7021 23.2756C39.9222 23.2908 42.6375 25.0843 44.1995 27.819C48.7711 23.1099 49.1356 16.7259 46.979 10.7678C45.974 7.99189 44.2047 4.83185 43.6555 4.83185C43.529 4.83185 42.9874 5.15697 42.452 5.55437ZM20.6953 34.7249C22.2749 34.4734 25.9267 34.8605 25.6839 35.2537C25.3582 35.7795 16.1773 43.6688 14.5936 45.0025C13.2912 46.0991 11.9706 47.1054 11.5016 47.9996C11.0949 48.7749 11.1336 48.1796 11.5812 46.7738C12.8116 42.9096 16.4657 41.8968 16.2803 37.657C16.2258 36.4132 16.2564 36.1191 16.4327 36.1867C17.2461 36.4988 19.7411 34.8768 20.6953 34.7249Z"/>
</mask>
<path d="M31.0189 7.40876C30.2838 2.94007 30.2903 3.62222 30.0605 5.49821C29.7477 8.05195 29.0106 13.8748 29.2235 16.4314C31.4637 15.135 31.3991 9.71962 31.0189 7.40876Z" fill="url(#paint0_linear_0_4)"/>
<path d="M56.4593 17.1798C54.5569 15.5967 53.1605 14.6607 53.2828 15.0506C53.4645 15.6304 54.0221 19.1782 54.1405 20.5091L54.2588 21.8382C59.491 27.3058 62.5505 34.4456 63.3801 41.977C63.4931 43.0021 63.607 43.8193 63.6333 43.793C64.9785 42.4478 64.6396 37.097 64.3016 35.5028C64.2086 35.0642 64.2267 34.8798 64.3628 34.8798C64.6992 34.8798 67.7222 38.069 68.5743 39.3229C69.024 39.9847 69.4154 40.5031 69.444 40.4745C69.5216 40.3968 69.0705 37.932 68.7579 36.7253C67.8938 33.3905 65.1649 28.248 62.9611 25.801C62.5375 25.3307 62.1909 24.8996 62.1909 24.8429C62.1909 24.7863 62.5461 24.9197 62.98 25.1391C63.7256 25.5164 65.8522 26.2408 66.2138 26.2408C66.3057 26.2408 65.9053 25.8944 65.3242 25.4711C62.0668 23.0983 59.5549 19.7555 56.4593 17.1798Z" fill="url(#paint1_linear_0_4)"/>
<path d="M59.8152 45.8126C59.4522 45.0908 59.0938 44.4621 59.0185 44.4158C58.9435 44.3693 58.7438 44.8683 58.575 45.5246C55.2773 58.3447 43.2056 68.5624 30.9035 72.245C30.2087 72.453 30.4132 72.4746 33.7922 72.5518L37.4284 72.6349L36.0571 73.1951C27.4106 76.7271 22.8789 87.1358 21.527 95.7276C21.4326 96.3271 21.4973 96.2544 22.1874 94.983C30.3661 79.9165 50.6627 77.1066 58.1673 61.6246C58.5336 60.8687 58.9039 60.2937 58.9898 60.3469C59.0759 60.4001 59.1528 61.5045 59.1606 62.8012L59.1749 65.1588L59.7331 63.9959C62.424 58.3896 62.6249 51.401 59.8152 45.8126Z" fill="url(#paint2_linear_0_4)"/>
<path fill-rule="evenodd" clip-rule="evenodd" d="M44.9046 3.1308C44.208 2.14944 43.5652 1.34585 43.476 1.34485C43.2188 1.34203 39.8686 4.85444 37.6146 7.49C34.5875 11.0293 31.9084 14.6398 27.7321 20.8072C25.5003 24.1031 25.3132 24.3578 25.2042 24.2488C24.1589 23.2059 29.329 18.5076 28.6162 17.6144C28.5162 17.4891 27.8165 17.8425 25.8419 18.7953C18.7386 22.2226 11.8312 28.5527 11.3406 36.8612C11.1554 39.9977 11.0487 40.2128 7.72556 44.1592C6.12702 46.0576 5.34635 47.1164 5.34485 47.3882C5.34419 47.5074 8.52162 48.3591 8.77104 48.3591C9.12591 48.3591 9.04333 48.5868 8.49974 49.1077C7.9417 49.6423 7.6724 50.4148 7.67107 51.4851C7.67007 52.2534 7.75098 52.454 8.60541 53.798C9.11112 54.5934 9.19153 54.6531 9.54307 54.4929C9.84543 54.3552 10.3696 54.4338 11.9969 54.8612C13.844 55.3464 14.3101 55.405 16.3375 55.4077C17.5868 55.4093 18.5741 55.467 18.5316 55.5356C18.3434 55.8401 16.6385 56.1674 15.2405 56.1674C14.1573 56.1674 13.2332 56.0418 11.952 55.7203C10.972 55.4744 10.1307 55.3126 10.0827 55.3608C9.92402 55.5193 10.6587 57.3988 11.1772 58.1612C11.7847 59.0545 12.6056 59.673 13.734 60.0875C14.8752 60.5068 18.3175 60.5083 20.2963 60.0902C22.8956 59.5409 28.1569 57.641 27.6062 57.4505C26.0788 56.9216 16.8254 54.0219 14.98 53.494C13.6551 53.1148 12.5337 52.7696 12.488 52.7267C12.317 52.5666 13.8333 52.9178 17.0567 53.7849C25.1598 55.9646 33.343 58.8087 41.7928 57.0471C41.8717 57.0306 41.9472 57.0152 42.0188 57.0006C42.4749 56.9074 42.7735 56.8464 42.7809 56.7603C42.7949 56.5972 41.7625 56.344 38.7727 55.6109C38.5253 55.5502 38.2644 55.4863 37.9896 55.4188C30.1019 53.4822 23.4396 52.3541 16.3973 51.763C14.6642 51.6175 13.2063 51.4561 13.1577 51.4045C13.0322 51.2711 17.5554 51.4887 20.7947 51.7718C28.2881 52.4268 35.9711 54.4361 43.4893 53.2556C45.8303 52.8881 45.9599 52.7806 44.3447 52.547C40.1914 51.9468 36.2115 50.3996 32.0584 49.7823C26.0223 48.8861 20.1084 49.0532 14.2751 50.2849C13.1812 50.5158 12.2537 50.6723 12.214 50.6325C12.0992 50.5177 15.5448 49.7142 17.6381 49.3675C22.4195 48.5759 29.4312 48.479 33.0886 49.1542C34.0481 49.3313 34.8493 49.464 34.8691 49.4492C34.889 49.4343 33.5433 48.9126 31.8787 48.2898C28.0214 46.8466 25.3087 45.715 25.1707 45.4918C24.9623 45.1548 30.7697 45.4893 34.4177 46.0246C40.9237 46.979 47.4522 47.516 53.2828 43.793C54.304 43.141 56.8459 40.7867 56.8459 40.4929C56.8459 40.4016 56.6776 40.4825 56.4721 40.6729C54.3027 42.6816 50.3638 43.2982 47.5423 43.0501L46.4625 42.9549L47.1466 42.5914C48.1966 42.0333 49.5811 40.6778 50.1068 39.6933L50.5804 38.8063L50.0166 39.3283C49.2912 40.0002 48.3037 40.4901 47.0022 40.8242C37.0325 43.3835 28.2654 36.6867 18.2611 44.1193C17.4617 44.7134 16.8075 45.1525 16.8075 45.095C19.4597 40.8242 25.1614 36.7273 28.5199 36.7328C27.7469 37.1142 24.3355 39.119 25.8618 38.4021C31.2128 35.8897 37.0626 35.784 43.023 38.0921C46.3459 39.3788 50.2431 37.5725 52.5094 34.9557C60.6323 25.574 50.3558 10.8101 44.9046 3.1308ZM42.452 5.55437C39.9575 7.40594 37.1154 11.2441 34.7601 15.9426C34.2049 17.0502 33.8215 17.9565 33.9082 17.9565C35.4358 17.9565 36.9708 15.5936 38.9623 15.6437L39.4848 15.6568L38.9864 15.8336C37.2029 16.4662 34.4815 20.7305 35.1238 20.1878C36.5868 18.9516 38.9894 18.4871 41.0236 19.0471C42.0528 19.3306 42.1028 19.3643 41.6446 19.467C40.7369 19.6699 33.9406 23.2627 36.7021 23.2756C39.9222 23.2908 42.6375 25.0843 44.1995 27.819C48.7711 23.1099 49.1356 16.7259 46.979 10.7678C45.974 7.99189 44.2047 4.83185 43.6555 4.83185C43.529 4.83185 42.9874 5.15697 42.452 5.55437ZM20.6953 34.7249C22.2749 34.4734 25.9267 34.8605 25.6839 35.2537C25.3582 35.7795 16.1773 43.6688 14.5936 45.0025C13.2912 46.0991 11.9706 47.1054 11.5016 47.9996C11.0949 48.7749 11.1336 48.1796 11.5812 46.7738C12.8116 42.9096 16.4657 41.8968 16.2803 37.657C16.2258 36.4132 16.2564 36.1191 16.4327 36.1867C17.2461 36.4988 19.7411 34.8768 20.6953 34.7249Z" fill="url(#paint3_linear_0_4)"/>
<path d="M31.0189 7.40876C30.2838 2.94007 30.2903 3.62222 30.0605 5.49821C29.7477 8.05195 29.0106 13.8748 29.2235 16.4314C31.4637 15.135 31.3991 9.71962 31.0189 7.40876Z" stroke="var(--stroke-0, black)" stroke-width="2.6897" mask="url(#path-1-outside-1_0_4)"/>
<path d="M56.4593 17.1798C54.5569 15.5967 53.1605 14.6607 53.2828 15.0506C53.4645 15.6304 54.0221 19.1782 54.1405 20.5091L54.2588 21.8382C59.491 27.3058 62.5505 34.4456 63.3801 41.977C63.4931 43.0021 63.607 43.8193 63.6333 43.793C64.9785 42.4478 64.6396 37.097 64.3016 35.5028C64.2086 35.0642 64.2267 34.8798 64.3628 34.8798C64.6992 34.8798 67.7222 38.069 68.5743 39.3229C69.024 39.9847 69.4154 40.5031 69.444 40.4745C69.5216 40.3968 69.0705 37.932 68.7579 36.7253C67.8938 33.3905 65.1649 28.248 62.9611 25.801C62.5375 25.3307 62.1909 24.8996 62.1909 24.8429C62.1909 24.7863 62.5461 24.9197 62.98 25.1391C63.7256 25.5164 65.8522 26.2408 66.2138 26.2408C66.3057 26.2408 65.9053 25.8944 65.3242 25.4711C62.0668 23.0983 59.5549 19.7555 56.4593 17.1798Z" stroke="var(--stroke-0, black)" stroke-width="2.6897" mask="url(#path-1-outside-1_0_4)"/>
<path d="M59.8152 45.8126C59.4522 45.0908 59.0938 44.4621 59.0185 44.4158C58.9435 44.3693 58.7438 44.8683 58.575 45.5246C55.2773 58.3447 43.2056 68.5624 30.9035 72.245C30.2087 72.453 30.4132 72.4746 33.7922 72.5518L37.4284 72.6349L36.0571 73.1951C27.4106 76.7271 22.8789 87.1358 21.527 95.7276C21.4326 96.3271 21.4973 96.2544 22.1874 94.983C30.3661 79.9165 50.6627 77.1066 58.1673 61.6246C58.5336 60.8687 58.9039 60.2937 58.9898 60.3469C59.0759 60.4001 59.1528 61.5045 59.1606 62.8012L59.1749 65.1588L59.7331 63.9959C62.424 58.3896 62.6249 51.401 59.8152 45.8126Z" stroke="var(--stroke-0, black)" stroke-width="2.6897" mask="url(#path-1-outside-1_0_4)"/>
<path fill-rule="evenodd" clip-rule="evenodd" d="M44.9046 3.1308C44.208 2.14944 43.5652 1.34585 43.476 1.34485C43.2188 1.34203 39.8686 4.85444 37.6146 7.49C34.5875 11.0293 31.9084 14.6398 27.7321 20.8072C25.5003 24.1031 25.3132 24.3578 25.2042 24.2488C24.1589 23.2059 29.329 18.5076 28.6162 17.6144C28.5162 17.4891 27.8165 17.8425 25.8419 18.7953C18.7386 22.2226 11.8312 28.5527 11.3406 36.8612C11.1554 39.9977 11.0487 40.2128 7.72556 44.1592C6.12702 46.0576 5.34635 47.1164 5.34485 47.3882C5.34419 47.5074 8.52162 48.3591 8.77104 48.3591C9.12591 48.3591 9.04333 48.5868 8.49974 49.1077C7.9417 49.6423 7.6724 50.4148 7.67107 51.4851C7.67007 52.2534 7.75098 52.454 8.60541 53.798C9.11112 54.5934 9.19153 54.6531 9.54307 54.4929C9.84543 54.3552 10.3696 54.4338 11.9969 54.8612C13.844 55.3464 14.3101 55.405 16.3375 55.4077C17.5868 55.4093 18.5741 55.467 18.5316 55.5356C18.3434 55.8401 16.6385 56.1674 15.2405 56.1674C14.1573 56.1674 13.2332 56.0418 11.952 55.7203C10.972 55.4744 10.1307 55.3126 10.0827 55.3608C9.92402 55.5193 10.6587 57.3988 11.1772 58.1612C11.7847 59.0545 12.6056 59.673 13.734 60.0875C14.8752 60.5068 18.3175 60.5083 20.2963 60.0902C22.8956 59.5409 28.1569 57.641 27.6062 57.4505C26.0788 56.9216 16.8254 54.0219 14.98 53.494C13.6551 53.1148 12.5337 52.7696 12.488 52.7267C12.317 52.5666 13.8333 52.9178 17.0567 53.7849C25.1598 55.9646 33.343 58.8087 41.7928 57.0471C41.8717 57.0306 41.9472 57.0152 42.0188 57.0006C42.4749 56.9074 42.7735 56.8464 42.7809 56.7603C42.7949 56.5972 41.7625 56.344 38.7727 55.6109C38.5253 55.5502 38.2644 55.4863 37.9896 55.4188C30.1019 53.4822 23.4396 52.3541 16.3973 51.763C14.6642 51.6175 13.2063 51.4561 13.1577 51.4045C13.0322 51.2711 17.5554 51.4887 20.7947 51.7718C28.2881 52.4268 35.9711 54.4361 43.4893 53.2556C45.8303 52.8881 45.9599 52.7806 44.3447 52.547C40.1914 51.9468 36.2115 50.3996 32.0584 49.7823C26.0223 48.8861 20.1084 49.0532 14.2751 50.2849C13.1812 50.5158 12.2537 50.6723 12.214 50.6325C12.0992 50.5177 15.5448 49.7142 17.6381 49.3675C22.4195 48.5759 29.4312 48.479 33.0886 49.1542C34.0481 49.3313 34.8493 49.464 34.8691 49.4492C34.889 49.4343 33.5433 48.9126 31.8787 48.2898C28.0214 46.8466 25.3087 45.715 25.1707 45.4918C24.9623 45.1548 30.7697 45.4893 34.4177 46.0246C40.9237 46.979 47.4522 47.516 53.2828 43.793C54.304 43.141 56.8459 40.7867 56.8459 40.4929C56.8459 40.4016 56.6776 40.4825 56.4721 40.6729C54.3027 42.6816 50.3638 43.2982 47.5423 43.0501L46.4625 42.9549L47.1466 42.5914C48.1966 42.0333 49.5811 40.6778 50.1068 39.6933L50.5804 38.8063L50.0166 39.3283C49.2912 40.0002 48.3037 40.4901 47.0022 40.8242C37.0325 43.3835 28.2654 36.6867 18.2611 44.1193C17.4617 44.7134 16.8075 45.1525 16.8075 45.095C19.4597 40.8242 25.1614 36.7273 28.5199 36.7328C27.7469 37.1142 24.3355 39.119 25.8618 38.4021C31.2128 35.8897 37.0626 35.784 43.023 38.0921C46.3459 39.3788 50.2431 37.5725 52.5094 34.9557C60.6323 25.574 50.3558 10.8101 44.9046 3.1308ZM42.452 5.55437C39.9575 7.40594 37.1154 11.2441 34.7601 15.9426C34.2049 17.0502 33.8215 17.9565 33.9082 17.9565C35.4358 17.9565 36.9708 15.5936 38.9623 15.6437L39.4848 15.6568L38.9864 15.8336C37.2029 16.4662 34.4815 20.7305 35.1238 20.1878C36.5868 18.9516 38.9894 18.4871 41.0236 19.0471C42.0528 19.3306 42.1028 19.3643 41.6446 19.467C40.7369 19.6699 33.9406 23.2627 36.7021 23.2756C39.9222 23.2908 42.6375 25.0843 44.1995 27.819C48.7711 23.1099 49.1356 16.7259 46.979 10.7678C45.974 7.99189 44.2047 4.83185 43.6555 4.83185C43.529 4.83185 42.9874 5.15697 42.452 5.55437ZM20.6953 34.7249C22.2749 34.4734 25.9267 34.8605 25.6839 35.2537C25.3582 35.7795 16.1773 43.6688 14.5936 45.0025C13.2912 46.0991 11.9706 47.1054 11.5016 47.9996C11.0949 48.7749 11.1336 48.1796 11.5812 46.7738C12.8116 42.9096 16.4657 41.8968 16.2803 37.657C16.2258 36.4132 16.2564 36.1191 16.4327 36.1867C17.2461 36.4988 19.7411 34.8768 20.6953 34.7249Z" stroke="var(--stroke-0, black)" stroke-width="2.6897" mask="url(#path-1-outside-1_0_4)"/>
</g>
<g id="CYRANO" filter="url(#filter1_d_0_4)">
<path d="M67.4503 51.4741L66.7421 48.6452C65.3965 50.3449 64.1615 52.0978 61.9188 53.1365C59.6526 54.2224 56.7617 55.0453 54.0234 55.0453C49.066 55.0453 44.5614 53.9005 41.0566 49.5587C38.9642 47.0478 37.4677 44.1775 37.4677 39.3381C37.4677 33.8142 38.8133 29.5886 41.5044 26.6614C44.1956 23.7105 50.8855 23.2001 55.4179 23.2001C61.3656 24.713 63.9839 28.6662 65.4476 35.7954L66.7421 34.4773C66.8601 33.3678 66.9191 32.1993 66.9191 30.9718V30.1219C66.8955 29.6498 66.8837 29.1659 66.8837 28.6701C66.8837 28.162 66.9664 26.5894 67.1318 23.9522C66.0932 23.3146 65.0856 22.8108 64.109 22.4407C60.9465 21.5891 57.8111 21.1632 54.7027 21.1632C49.0371 21.1632 44.4811 22.8157 41.0345 26.1206C37.5643 29.4491 35.8292 34.2531 35.8292 40.5324C35.8292 46.8354 37.4463 51.6394 40.6804 54.9443C43.9145 58.2728 48.3879 59.9371 54.1007 59.9371C55.9893 59.9371 57.9486 59.7364 59.9788 59.3351C62.009 58.9338 64.1218 58.3082 66.3172 57.4584L67.4503 51.4741Z" fill="var(--fill-0, #AEAEAE)"/>
<path d="M67.9191 30.9718C67.9191 32.2312 67.8586 33.4352 67.7365 34.5831L67.6993 34.9298L67.4552 35.1779L66.1613 36.4962L64.8458 37.8351L64.4679 35.9962C63.7491 32.4952 62.7681 29.8946 61.3195 27.9991C59.9137 26.1598 58.0125 24.9144 55.2882 24.2003C53.0749 24.2052 50.3982 24.3358 47.9601 24.8058C45.4291 25.2937 43.3602 26.1104 42.2433 27.3351L42.2404 27.338C39.7753 30.0193 38.4679 33.9668 38.4679 39.338C38.4679 43.9113 39.8602 46.561 41.8243 48.9181L41.8302 48.9249L41.8351 48.9308C45.0797 52.95 49.2353 54.045 54.0236 54.045C56.5804 54.045 59.3232 53.271 61.4865 52.2345L61.4982 52.2286C63.48 51.3108 64.5653 49.784 65.9581 48.0245L67.2189 46.4318L67.712 48.4025L68.42 51.2316L68.4738 51.4445L68.4327 51.6603L67.2999 57.6447L67.1964 58.1906L66.6779 58.3907C64.4356 59.2587 62.2672 59.9026 60.173 60.3165C58.085 60.7293 56.0602 60.9366 54.1007 60.9366C48.1843 60.9366 43.4272 59.2061 39.963 55.6407V55.6398C36.4901 52.0887 34.8292 46.9978 34.8292 40.5323C34.8292 34.0679 36.62 28.9686 40.3419 25.3986C44.0086 21.8826 48.8303 20.1633 54.7023 20.1632C57.7029 20.1632 60.7233 20.5488 63.7609 21.3165L64.3693 21.4747L64.4171 21.4884L64.463 21.506C65.5071 21.9016 66.5719 22.4345 67.6554 23.0997L68.1671 23.4142L68.13 24.0148C67.9636 26.6688 67.8839 28.2015 67.8839 28.67C67.8839 29.1499 67.8954 29.6177 67.9181 30.0724L67.9191 30.0968V30.9718Z" stroke="var(--stroke-0, black)" stroke-width="2"/>
</g>
<g id="Group 515524">
<path id="Rectangle 3428" d="M55.3155 23.4797L55.992 27.2535L45.0787 26.8362L47.8878 19.7056L54.1639 18.5538L55.3155 23.4797Z" fill="url(#paint4_linear_0_4)"/>
<path id="Line 155" d="M43.7341 27.2584C45.559 25.9083 48.2593 23.2079 47.2741 14.7419" stroke="var(--stroke-0, black)" stroke-width="1.35" stroke-linecap="round"/>
<path id="Line 156" d="M56.116 27.5321C55.8394 23.361 54.9625 19.4279 53.4914 16.1704" stroke="var(--stroke-0, black)" stroke-width="1.3" stroke-linecap="round"/>
</g>
</g>
<defs>
<filter id="filter0_d_0_4" x="-1.19209e-07" y="0" width="74.7977" height="105.437" filterUnits="userSpaceOnUse" color-interpolation-filters="sRGB">
<feFlood flood-opacity="0" result="BackgroundImageFix"/>
<feColorMatrix in="SourceAlpha" type="matrix" values="0 0 0 0 0 0 0 0 0 0 0 0 0 0 0 0 0 0 127 0" result="hardAlpha"/>
<feOffset dy="4"/>
<feGaussianBlur stdDeviation="2"/>
<feComposite in2="hardAlpha" operator="out"/>
<feColorMatrix type="matrix" values="0 0 0 0 0 0 0 0 0 0 0 0 0 0 0 0 0 0 0.25 0"/>
<feBlend mode="normal" in2="BackgroundImageFix" result="effect1_dropShadow_0_4"/>
<feBlend mode="normal" in="SourceGraphic" in2="effect1_dropShadow_0_4" result="shape"/>
</filter>
<filter id="filter1_d_0_4" x="29.8292" y="19.1632" width="43.6679" height="50.7739" filterUnits="userSpaceOnUse" color-interpolation-filters="sRGB">
<feFlood flood-opacity="0" result="BackgroundImageFix"/>
<feColorMatrix in="SourceAlpha" type="matrix" values="0 0 0 0 0 0 0 0 0 0 0 0 0 0 0 0 0 0 127 0" result="hardAlpha"/>
<feOffset dy="4"/>
<feGaussianBlur stdDeviation="2"/>
<feComposite in2="hardAlpha" operator="out"/>
<feColorMatrix type="matrix" values="0 0 0 0 0 0 0 0 0 0 0 0 0 0 0 0 0 0 0.25 0"/>
<feBlend mode="normal" in2="BackgroundImageFix" result="effect1_dropShadow_0_4"/>
<feBlend mode="normal" in="SourceGraphic" in2="effect1_dropShadow_0_4" result="shape"/>
</filter>
<linearGradient id="paint0_linear_0_4" x1="14.6555" y1="14.3793" x2="69.4528" y2="74.9306" gradientUnits="userSpaceOnUse">
<stop stop-color="#DADADA"/>
<stop offset="0.535" stop-color="#363636"/>
</linearGradient>
<linearGradient id="paint1_linear_0_4" x1="14.6555" y1="14.3793" x2="69.4528" y2="74.9306" gradientUnits="userSpaceOnUse">
<stop stop-color="#DADADA"/>
<stop offset="0.535" stop-color="#363636"/>
</linearGradient>
<linearGradient id="paint2_linear_0_4" x1="14.6555" y1="14.3793" x2="69.4528" y2="74.9306" gradientUnits="userSpaceOnUse">
<stop stop-color="#DADADA"/>
<stop offset="0.535" stop-color="#363636"/>
</linearGradient>
<linearGradient id="paint3_linear_0_4" x1="14.6555" y1="14.3793" x2="69.4528" y2="74.9306" gradientUnits="userSpaceOnUse">
<stop stop-color="#DADADA"/>
<stop offset="0.535" stop-color="#363636"/>
</linearGradient>
<linearGradient id="paint4_linear_0_4" x1="52.9126" y1="26.951" x2="48.1211" y2="19.6603" gradientUnits="userSpaceOnUse">
<stop stop-color="#3E3E3E"/>
<stop offset="1" stop-color="#767676"/>
</linearGradient>
</defs>
</svg>
